# AST/ASF file generated using VICON BodyLanguage
# -----------------------------------------------
:version 1.10
:name VICON
:units
  mass 1.0
  length 0.45
  angle deg
:documentation
   .ast/.asf automatically generated from VICON data using
   VICON BodyBuilder and BodyLanguage model FoxedUp or BRILLIANT.MOD
:root
   order TX TY TZ RX RY RZ
   axis XYZ
   position 0 0 0  
   orientation 0 0 0 
:bonedata
  begin
     id 1 
     name lhipjoint
     direction 0.627457 -0.725269 0.283342 
     length 2.53237 
     axis 0 0 0  XYZ
  end
  begin
     id 2 
     name lfemur
     direction 0.34202 -0.939693 0  
     length 7.32496  
     axis 0 0 20  XYZ
    dof rx ry rz
    limits (-160.0 20.0)
           (-70.0 70.0)
           (-60.0 70.0)
  end
  begin
     id 3 
     name ltibia
     direction 0.34202 -0.939693 0   
     length 7.69674   
     axis 0 0 20   XYZ
    dof rx
    limits (-10.0 170.0)
  end
  begin
     id 4 
     name lfoot
     direction 0.127289 -0.349722 0.928166   
     length 1.8612   
     axis -90 7.62852e-016 20   XYZ
    dof rx rz
    limits (-45.0 90.0)
           (-70.0 20.0)
  end
  begin
     id 5 
     name ltoes
     direction 1.53561e-011 -4.21864e-011 1   
     length 0.925608   
     axis -90 7.62852e-016 20   XYZ
    dof rx
    limits (-90.0 20.0)
  end
  begin
     id 6 
     name rhipjoint
     direction -0.609094 -0.738725 0.288599   
     length 2.48624  
     axis 0 0 0  XYZ 
  end
  begin
     id 7 
     name rfemur
     direction -0.34202 -0.939693 0   
     length 7.44259   
     axis 0 0 -20   XYZ
    dof rx ry rz
    limits (-160.0 20.0)
           (-70.0 70.0)
           (-70.0 60.0)
  end
  begin
     id 8 
     name rtibia
     direction -0.34202 -0.939693 0   
     length 7.7781   
     axis 0 0 -20   XYZ
    dof rx
    limits (-10.0 170.0)
 end
 begin
     id 9 
     name rfoot
     direction -0.107015 -0.294021 0.949789   
     length 2.14741  
     axis -90 -7.62852e-016 -20   XYZ
    dof rx rz
    limits (-45.0 90.0)
           (-20.0 70.0)
  end
  begin
     id 10 
     name rtoes
     direction -1.53497e-011 -4.21924e-011 1   
     length 1.0706   
     axis -90 -7.62852e-016 -20   XYZ
    dof rx
    limits (-90.0 20.0)
  end
  begin
     id 11 
     name lowerback
     direction -0.0142066 0.998112 -0.0597545   
     length 1.86627   
     axis 0 0 0   XYZ
    dof rx ry rz
    limits (-20.0 45.0)
           (-30.0 30.0)
           (-30.0 30.0)
  end
  begin
     id 12 
     name upperback
     direction 0.00547294 0.999744 0.0219437   
     length 1.86272   
     axis 0 0 0   XYZ
    dof rx ry rz
    limits (-20.0 45.0)
           (-30.0 30.0)
           (-30.0 30.0)
  end
  begin
     id 13 
     name thorax
     direction 0.0116162 0.998704 0.0495538   
     length 1.8703   
     axis 0 0 0   XYZ
    dof rx ry rz
    limits (-20.0 45.0)
           (-30.0 30.0)
           (-30.0 30.0)
  end
  begin
     id 14 
     name lowerneck
     direction -0.0106574 0.998739 0.0490586   
     length 1.8074   
     axis 0 0 0   XYZ
    dof rx ry rz
    limits (-20.0 45.0)
           (-30.0 30.0)
           (-30.0 30.0)
  end
  begin
     id 15 
     name upperneck
     direction 0.030527 0.976587 -0.212944   
     length 1.80681   
     axis 0 0 0   XYZ
    dof rx ry rz
    limits (-20.0 45.0)
           (-30.0 30.0)
           (-30.0 30.0)
  end
  begin
     id 16
     name head
     direction 0.00869225 0.997035 -0.0764531  
     length 1.8313  
     axis 0 0 0   XYZ
    dof rx ry rz
    limits (-20.0 45.0)
           (-30.0 30.0)
           (-30.0 30.0)
  end
  begin
     id 17 
     name lclavicle
     direction 0.915958 0.399447 0.0382386  
     length 3.78965  
     axis 0 0 0   XYZ
    dof ry rz
    limits (-20.0 10.0)
           (0.0 20.0)
  end
  begin
     id 18 
     name lhumerus
     direction 1 -4.48967e-011 3.19303e-027   
     length 4.78095   
     axis -180 -30 -90   XYZ
    dof rx ry rz
    limits (-60.0 90.0)
           (-90.0 90.0)
           (-90.0 90.0)
  end
  begin
     id 19
     name lradius
     direction 1 -4.48967e-011 -3.77974e-027   
     length 3.58615   
     axis -180 -30 -90   XYZ
    dof rx
    limits (-10.0 170.0)
  end
  begin
     id 20
     name lwrist
     direction 1 -4.48927e-011 1.2807e-027   
     length 1.79307   
     axis 1.91374e-015 90 90   XYZ
    dof ry
    limits (-180.0 0.0)
 end
  begin
     id 21 
     name lhand
     direction 1 -4.49036e-011 2.5614e-027   
     length 0.659812   
     axis -1.63439e-015 90 90   XYZ
    dof rx rz
    limits (-90.0 90.0)
           (-45.0 45.0)
  end
  begin
     id 22 
     name lfingers
     direction 1 -4.49052e-011 5.1228e-027   
     length 0.531957   
     axis -3.26879e-015 90 90   XYZ
    dof rx
    limits (0.0 90.0)
  end
  begin
     id 23
     name lthumb
     direction 0.707107 -6.35012e-011 0.707107   
     length 0.763787   
     axis -90 45 2.85299e-015   XYZ
    dof rx rz
    limits (-45.0 45.0)
           (-45.0 45.0)
  end
  begin
     id 24 
     name rclavicle
     direction -0.895351 0.435135 0.0948887   
     length 3.70497  
     axis 0 0 0   XYZ 
    dof ry rz
    limits (-10.0 20.0)
           (-20.0 0.0)
  end
  begin
     id 25 
     name rhumerus
     direction -1 -4.48971e-011 2.38946e-027  
     length 4.48913   
     axis -180 30 90   XYZ
    dof rx ry rz
    limits (-90.0 60.0)
           (-90.0 90.0)
           (-90.0 90.0)
  end
  begin
     id 26 
     name rradius
     direction -1 -4.4895e-011 4.38668e-027   
     length 3.7051   
     axis -180 30 90   XYZ
    dof rx
    limits (-10.0 170.0)
  end
  begin
     id 27 
     name rwrist
     direction -1 -4.49007e-011 1.2807e-027   
     length 1.85255   
     axis 1.91374e-015 -90 -90   XYZ
    dof ry
    limits (-180.0 0.0)
  end
  begin
     id 28
     name rhand
     direction -1 -4.48851e-011 2.5614e-027   
     length 0.449136   
     axis -1.63439e-015 -90 -90   XYZ
    dof rx rz
    limits (-90.0 90.0)
           (-45.0 45.0)
  end
  begin
     id 29
     name rfingers
     direction -1 -4.49128e-011 5.1228e-027   
     length 0.362105   
     axis -3.26879e-015 -90 -90   XYZ
    dof rx
    limits (0.0 90.0)
  end
  begin
     id 30
     name rthumb
     direction -0.707107 -6.34851e-011 0.707107   
     length 0.519912   
     axis -90 -45 -2.85299e-015   XYZ
    dof rx rz
    limits (-45.0 45.0)
           (-45.0 45.0)
  end
:hierarchy
  begin
    root lhipjoint rhipjoint lowerback
    lhipjoint lfemur
    lfemur ltibia
    ltibia lfoot
    lfoot ltoes
    rhipjoint rfemur
    rfemur rtibia
    rtibia rfoot
    rfoot rtoes
    lowerback upperback
    upperback thorax
    thorax lowerneck lclavicle rclavicle
    lowerneck upperneck
    upperneck head
    lclavicle lhumerus
    lhumerus lradius
    lradius lwrist
    lwrist lhand lthumb
    lhand lfingers
    rclavicle rhumerus
    rhumerus rradius
    rradius rwrist
    rwrist rhand rthumb
    rhand rfingers
  end

#!OML:ASF I:\Actors\actors\Patient Classification 2\Patient 1\Session 1\actor1.ASF
:FULLY-SPECIFIED
:DEGREES
62
root -0.968595 18.1563 5.93791 0.67827 -3.79835 -4.61215
lowerback 0.859513 0.495848 2.68382
upperback -0.835486 0.71855 1.48891
thorax -1.32441 0.340583 0.00752607
lowerneck -9.82944 -1.75021 -3.26328
upperneck 22.6639 -2.93449 4.71092
head 8.80094 -1.18344 1.84038
rclavicle -1.20591e-014 -1.77415e-014
rhumerus -45.9245 -5.98267 -86.0926
rradius 40.2678
rwrist 22.6053
rhand -4.96163 -27.8952
rfingers 7.12502
rthumb 20.8303 -56.7971
lclavicle -1.20591e-014 -1.77415e-014
lhumerus -40.5716 4.40331 90.2147
lradius 32.6476
lwrist -1.54611
lhand -9.3731 -30.3309
lfingers 7.12502
lthumb 16.5873 -1.01977
rfemur 0 0 0
rtibia 0
rfoot 0 0
rtoes 0
lfemur 17.9553 -8.3109 -13.2884
ltibia -17.8453
lfoot -6.62785 24.746
ltoes -9.36148
63
root -0.968624 18.1561 5.93795 0.66802 -3.78839 -4.62694
lowerback 0.879499 0.497784 2.69914
upperback -0.841848 0.722362 1.49075
thorax -1.34193 0.342131 0.00055819
lowerneck -9.81524 -1.74935 -3.28295
upperneck 22.6567 -2.93795 4.74709
head 8.79676 -1.18328 1.85568
rclavicle 2.26661e-015 -1.56046e-014
rhumerus -45.9326 -5.96272 -86.1131
rradius 40.268
rwrist 22.5321
rhand -4.96443 -27.8721
rfingers 7.12502
rthumb 20.8276 -56.7742
lclavicle 2.26661e-015 -1.56046e-014
lhumerus -40.6373 4.48051 90.1775
lradius 32.7177
lwrist -1.6402
lhand -9.37243 -30.3041
lfingers 7.12502
lthumb 16.5879 -0.993062
rfemur 0 0 0
rtibia 0
rfoot 0 0
rtoes 0
lfemur 17.9686 -8.25583 -13.2629
ltibia -17.8572
lfoot -6.55123 24.6815
ltoes -9.56081
64
root -0.968415 18.1561 5.93789 0.662193 -3.77382 -4.62788
lowerback 0.884013 0.498011 2.70266
upperback -0.844094 0.722932 1.48804
thorax -1.34668 0.342306 -0.00425537
lowerneck -9.83841 -1.76071 -3.29321
upperneck 22.6723 -2.95189 4.74673
head 8.80725 -1.1903 1.85585
rclavicle -9.31803e-018 -1.14301e-015
rhumerus -45.9322 -5.94993 -86.1335
rradius 40.2632
rwrist 22.508
rhand -4.91902 -27.8829
rfingers 7.12502
rthumb 20.8712 -56.7802
lclavicle -9.31803e-018 -1.14301e-015
lhumerus -40.9159 5.29874 89.7832
lradius 33.1115
lwrist -2.57801
lhand -9.08721 -30.2839
lfingers 7.12502
lthumb 16.8625 -0.996007
rfemur 0 0 0
rtibia 0
rfoot 0 0
rtoes 0
lfemur 17.9802 -8.2396 -13.2578
ltibia -17.8731
lfoot -6.5622 24.6536
ltoes -9.57508
65
root -0.968287 18.1563 5.93782 0.662968 -3.76838 -4.63348
lowerback 0.874642 0.49376 2.70776
upperback -0.844017 0.716985 1.49002
thorax -1.34143 0.339349 -0.00487209
lowerneck -9.8626 -1.76825 -3.30686
upperneck 22.6938 -2.96004 4.74609
head 8.8197 -1.19489 1.85715
rclavicle -3.23646e-015 -8.59744e-015
rhumerus -45.9283 -5.97565 -86.1282
rradius 40.2569
rwrist 22.5496
rhand -4.89482 -27.8714
rfingers 7.12502
rthumb 20.8945 -56.7661
lclavicle -3.23646e-015 -8.59744e-015
lhumerus -41.5229 7.13908 88.9123
lradius 33.9824
lwrist -4.57772
lhand -8.46242 -30.3261
lfingers 7.12502
lthumb 17.4639 -1.09061
rfemur 0 0 0
rtibia 0
rfoot 0 0
rtoes 0
lfemur 17.9867 -8.28152 -13.2548
ltibia -17.8815
lfoot -6.64821 24.6985
ltoes -9.2465
66
root -0.968048 18.1558 5.93793 0.652091 -3.76954 -4.63124
lowerback 0.879579 0.492551 2.70474
upperback -0.842854 0.71549 1.48983
thorax -1.34307 0.338621 -0.00339379
lowerneck -9.88395 -1.76794 -3.32645
upperneck 22.7237 -2.96109 4.76532
head 8.83457 -1.19459 1.86709
rclavicle -1.85437e-014 -5.06901e-015
rhumerus -45.9253 -6.01023 -86.1124
rradius 40.249
rwrist 22.5812
rhand -4.88051 -27.8687
rfingers 7.12502
rthumb 20.9082 -56.7619
lclavicle -1.85437e-014 -5.06901e-015
lhumerus -43.2146 7.3403 88.8038
lradius 37.8771
lwrist -4.85065
lhand -7.32175 -28.6223
lfingers 7.12502
lthumb 18.5614 0.512181
rfemur 0 0 0
rtibia 0
rfoot 0 0
rtoes 0
lfemur 18.0033 -8.27218 -13.2641
ltibia -17.8891
lfoot -6.63452 24.702
ltoes -9.36142
67
root -0.967823 18.1553 5.93802 0.626793 -3.76284 -4.61701
lowerback 0.886064 0.490956 2.68982
upperback -0.830549 0.713016 1.48693
thorax -1.33426 0.337684 0.00202308
lowerneck -9.89191 -1.76255 -3.33654
upperneck 22.7298 -2.95471 4.77861
head 8.83821 -1.19092 1.87404
rclavicle -1.11118e-014 -9.49197e-015
rhumerus -45.9148 -6.00593 -86.1104
rradius 40.2435
rwrist 22.5915
rhand -4.88994 -27.8553
rfingers 7.12502
rthumb 20.8992 -56.7495
lclavicle -1.11118e-014 -9.49197e-015
lhumerus -43.2314 7.19354 88.876
lradius 37.9701
lwrist -4.66006
lhand -7.33544 -28.5906
lfingers 7.12502
lthumb 18.5482 0.545061
rfemur 0 0 0
rtibia 0
rfoot 0 0
rtoes 0
lfemur 18.0301 -8.22715 -13.2804
ltibia -17.9036
lfoot -6.56652 24.6601
ltoes -9.64822
68
root -0.967951 18.1549 5.93746 0.614257 -3.75954 -4.60399
lowerback 0.874434 0.490161 2.67671
upperback -0.814722 0.710772 1.48045
thorax -1.3116 0.336986 0.00293508
lowerneck -9.89558 -1.75534 -3.32048
upperneck 22.7173 -2.94453 4.76796
head 8.83372 -1.18587 1.86862
rclavicle -1.47334e-014 -4.47266e-016
rhumerus -45.8885 -5.99424 -86.1226
rradius 40.2171
rwrist 22.6186
rhand -4.95563 -27.7959
rfingers 7.12502
rthumb 20.836 -56.6971
lclavicle -1.47334e-014 -4.47266e-016
lhumerus -42.6258 7.67192 88.6706
lradius 36.4956
lwrist -5.21157
lhand -7.666 -29.0947
lfingers 7.12502
lthumb 18.2302 0.0709706
rfemur 0 0 0
rtibia 0
rfoot 0 0
rtoes 0
lfemur 18.0429 -8.21079 -13.2891
ltibia -17.9139
lfoot -6.56347 24.6486
ltoes -9.61826
69
root -0.967862 18.1539 5.93651 0.616718 -3.76129 -4.58965
lowerback 0.862607 0.494111 2.66785
upperback -0.81029 0.715193 1.46996
thorax -1.30029 0.33937 -0.0028003
lowerneck -9.92438 -1.74335 -3.291
upperneck 22.7287 -2.92831 4.74748
head 8.84158 -1.17732 1.85832
rclavicle 1.11715e-014 1.57537e-014
rhumerus -45.8786 -5.97072 -86.1396
rradius 40.2099
rwrist 22.6227
rhand -4.96462 -27.7955
rfingers 7.12502
rthumb 20.8274 -56.6976
lclavicle 1.11715e-014 1.57537e-014
lhumerus -40.6605 4.10257 90.3525
lradius 33.0289
lwrist -1.43416
lhand -9.33994 -29.4693
lfingers 7.12502
lthumb 16.6192 -0.16085
rfemur 0 0 0
rtibia 0
rfoot 0 0
rtoes 0
lfemur 18.0409 -8.21643 -13.3056
ltibia -17.9157
lfoot -6.56214 24.6682
ltoes -9.55197
70
root -0.96728 18.1535 5.93618 0.614514 -3.75326 -4.57244
lowerback 0.858293 0.493193 2.65501
upperback -0.81347 0.713639 1.46437
thorax -1.30124 0.33866 -0.00129933
lowerneck -9.97019 -1.7287 -3.29747
upperneck 22.773 -2.9107 4.76237
head 8.86483 -1.1671 1.86658
rclavicle -3.04544e-015 -1.7344e-014
rhumerus -45.8983 -5.92772 -86.1475
rradius 40.2425
rwrist 22.5867
rhand -4.88109 -27.8024
rfingers 7.12502
rthumb 20.9077 -56.6957
lclavicle -3.04544e-015 -1.7344e-014
lhumerus -40.6554 4.27676 90.2172
lradius 32.7868
lwrist -1.52002
lhand -9.34237 -30.3035
lfingers 7.12502
lthumb 16.6168 -0.994866
rfemur 0 0 0
rtibia 0
rfoot 0 0
rtoes 0
lfemur 18.0374 -8.19677 -13.3256
ltibia -17.912
lfoot -6.50449 24.6282
ltoes -9.70102
71
root -0.966506 18.1547 5.93597 0.60277 -3.73736 -4.564
lowerback 0.856527 0.482265 2.64534
upperback -0.806218 0.698678 1.46627
thorax -1.29323 0.331411 0.00638273
lowerneck -10.0215 -1.7101 -3.3177
upperneck 22.813 -2.88633 4.78471
head 8.88762 -1.15409 1.88039
rclavicle 9.25358e-015 9.49197e-015
rhumerus -45.9019 -5.89858 -86.1491
rradius 40.2633
rwrist 22.5511
rhand -4.83765 -27.7702
rfingers 7.12502
rthumb 20.9494 -56.6589
lclavicle 9.25358e-015 9.49197e-015
lhumerus -40.6437 4.32949 90.2001
lradius 32.775
lwrist -1.56191
lhand -9.3451 -30.3005
lfingers 7.12502
lthumb 16.6142 -0.991609
rfemur 0 0 0
rtibia 0
rfoot 0 0
rtoes 0
lfemur 18.0374 -8.17302 -13.3332
ltibia -17.9007
lfoot -6.47359 24.5737
ltoes -9.78874
72
root -0.965725 18.1546 5.93492 0.58166 -3.73377 -4.55728
lowerback 0.866549 0.481136 2.6427
upperback -0.793864 0.697172 1.4654
thorax -1.28622 0.330826 0.00696548
lowerneck -10.0239 -1.69202 -3.30656
upperneck 22.7991 -2.86009 4.77493
head 8.88175 -1.14184 1.87783
rclavicle 5.81833e-015 4.96962e-016
rhumerus -45.8954 -5.90736 -86.137
rradius 40.2724
rwrist 22.5332
rhand -4.77252 -27.8278
rfingers 7.12502
rthumb 21.012 -56.7095
lclavicle 5.81833e-015 4.96962e-016
lhumerus -40.6217 4.34462 90.193
lradius 32.7627
lwrist -1.55474
lhand -9.32741 -30.2865
lfingers 7.12502
lthumb 16.6313 -0.979023
rfemur 0 0 0
rtibia 0
rfoot 0 0
rtoes 0
lfemur 18.0467 -8.16796 -13.344
ltibia -17.8794
lfoot -6.48379 24.574
ltoes -9.60433
73
root -0.964863 18.1537 5.93406 0.570994 -3.74217 -4.53989
lowerback 0.86009 0.489221 2.64543
upperback -0.789194 0.707454 1.45215
thorax -1.27741 0.33599 -0.00825131
lowerneck -9.98745 -1.68611 -3.29342
upperneck 22.7506 -2.85336 4.77597
head 8.85779 -1.13825 1.87637
rclavicle 1.09603e-014 -9.49197e-015
rhumerus -45.8922 -5.92832 -86.1269
rradius 40.271
rwrist 22.5276
rhand -4.77159 -27.898
rfingers 7.12502
rthumb 21.0129 -56.7796
lclavicle 1.09603e-014 -9.49197e-015
lhumerus -40.6197 4.3142 90.1897
lradius 32.7769
lwrist -1.50816
lhand -9.30423 -30.2639
lfingers 7.12502
lthumb 16.6536 -0.958359
rfemur 0 0 0
rtibia 0
rfoot 0 0
rtoes 0
lfemur 18.0432 -8.14188 -13.3664
ltibia -17.8557
lfoot -6.4632 24.5531
ltoes -9.61509
